<svg width="200" height="60" viewBox="0 0 200 60" fill="none" xmlns="http://www.w3.org/2000/svg">
<path d="M31.552 12.9982L34.1813 10.3986L36.811 12.9982L31.552 18.1977L36.811 23.3968L47.3285 12.9982L34.1813 0L26.2935 7.79908L31.552 12.9982Z" fill="#FCC000"/>
<path d="M13.1463 0L7.88776 5.19908L39.5452 36.4991L26.2935 49.6014L13.0414 36.4991L18.4053 31.1958L23.6638 36.3954L20.9292 39.0986L26.2935 44.4019L34.2867 36.4991L5.2585 7.79908L-0.000488281 12.9982L13.1463 25.9968L2.52386 36.4991L26.2935 60L50.0627 36.4991L36.811 23.3968L31.552 18.1977L13.1463 0Z" fill="#FCC000"/>
<path d="M85.9639 1.9051H94.0874V26.247H85.9639V17.4372H76.4033V26.247H68.2798V1.9051H76.4033V10.7144H85.9639V1.9051Z" fill="white"/>
<path d="M116.387 26.247L115.303 23.0302H104.745L103.66 26.247H95.2719L104.334 1.9051H115.713L124.775 26.247H116.387ZM106.739 17.0898H113.308L110.728 9.43952H109.32L106.739 17.0898Z" fill="white"/>
<path d="M125.949 26.247V1.9051H134.072V19.553H147.211V26.247H125.949Z" fill="white"/>
<path d="M169.176 26.247L168.091 23.0302H157.534L156.448 26.247H148.061L157.123 1.9051H168.502L177.564 26.247H169.176ZM159.528 17.0898H166.097L163.517 9.43952H162.108L159.528 17.0898Z" fill="white"/>
<path d="M178.737 26.247V1.9051H186.861V19.553H200V26.247H178.737Z" fill="white"/>
<path d="M68.2798 58.1233V33.7814H90.4217V40.4754H76.4033V43.7786H89.8059V49.5744H76.4033V58.1233H68.2798Z" fill="white"/>
<path d="M109.48 58.1233L108.395 54.9065H97.8367L96.7514 58.1233H88.3641L97.426 33.7814H108.805L117.867 58.1233H109.48ZM99.8309 48.9661H106.4L103.82 41.3158H102.412L99.8309 48.9661Z" fill="white"/>
<path d="M144.644 58.1233H136.666L133.323 51.8349H127.165V58.1233H119.041V33.7814H133.147C140.264 33.7814 143.822 36.8819 143.822 43.0833C143.822 46.1163 142.63 48.4637 140.244 50.1251L144.644 58.1233ZM127.165 40.4465V45.8363H132.59C133.607 45.8363 134.379 45.6047 134.907 45.1409C135.435 44.6772 135.699 44.0107 135.699 43.1414C135.699 42.2721 135.435 41.6056 134.907 41.1419C134.379 40.6781 133.607 40.4465 132.59 40.4465H127.165Z" fill="white"/>
<path d="M146.26 58.1233V33.7814H156.495L160.513 47.6619H161.099L165.117 33.7814H175.353V58.1233H167.61V47.3433H166.965L163.827 58.1233H157.786L154.647 47.3433H154.002V58.1233H146.26Z" fill="white"/>
</svg>
